<svg width="229" height="229" viewBox="0 0 229 229" fill="none" xmlns="http://www.w3.org/2000/svg">
<g clip-path="url(#clip0_104_6611)">
<path d="M160.997 70.2799V124.184C160.997 124.362 160.962 124.538 160.894 124.703C160.826 124.868 160.726 125.017 160.6 125.143C160.474 125.269 160.325 125.369 160.16 125.437C159.995 125.506 159.819 125.541 159.641 125.541H68.1349C68.0698 125.541 68.0047 125.536 67.9404 125.526C67.6177 125.479 67.3224 125.318 67.1089 125.071C66.8954 124.825 66.7778 124.51 66.7778 124.184V70.2799C66.7777 69.9201 66.9205 69.575 67.1749 69.3205C67.4292 69.066 67.7742 68.923 68.134 68.9229H159.64C159.818 68.9228 159.995 68.9578 160.159 69.0259C160.324 69.0941 160.473 69.1939 160.599 69.3199C160.725 69.4458 160.825 69.5953 160.894 69.7599C160.962 69.9245 160.997 70.1009 160.997 70.2791V70.2799Z" fill="#E6E6E6"/>
<path d="M89.8435 100.973C96.419 100.973 101.75 95.6426 101.75 89.0671C101.75 82.4916 96.419 77.1611 89.8435 77.1611C83.268 77.1611 77.9375 82.4916 77.9375 89.0671C77.9375 95.6426 83.268 100.973 89.8435 100.973Z" fill="#D5D5D5"/>
<path d="M127.18 125.757H68.7725C68.6993 125.758 68.6263 125.752 68.5542 125.74L96.1782 77.8909C96.3468 77.5929 96.5914 77.345 96.8872 77.1726C97.183 77.0001 97.5192 76.9092 97.8616 76.9092C98.204 76.9092 98.5402 77.0001 98.836 77.1726C99.1317 77.345 99.3764 77.5929 99.545 77.8909L118.084 110.001L118.972 111.538L127.18 125.757Z" fill="#B2B1B5"/>
<path opacity="0.2" d="M127.179 125.757H107.238L117.027 111.538L117.732 110.513L118.084 110.001L118.972 111.538L127.179 125.757Z" fill="black"/>
<path d="M159.7 125.757H109.183L118.972 111.537L119.676 110.513L132.433 91.9824C133.269 90.7679 135.281 90.6923 136.264 91.7534C136.33 91.8257 136.392 91.9022 136.448 91.9824L159.7 125.757Z" fill="#B2B1B5"/>
<path d="M166.145 66.8753C165.842 66.0352 165.287 65.309 164.557 64.7953C163.826 64.2815 162.955 64.0052 162.062 64.0039H65.839C65.2691 64.0037 64.7048 64.1158 64.1782 64.3337C63.6517 64.5517 63.1733 64.8713 62.7704 65.2743C62.3674 65.6772 62.0478 66.1556 61.8298 66.6822C61.6119 67.2087 61.4998 67.773 61.5 68.3429V144.402C61.5016 145.553 61.9593 146.655 62.7726 147.469C63.586 148.282 64.6887 148.74 65.839 148.741H162.062C163.212 148.74 164.315 148.282 165.128 147.469C165.941 146.655 166.399 145.553 166.401 144.402V68.3429C166.401 67.8426 166.315 67.3459 166.145 66.8753ZM165.89 144.402C165.889 145.417 165.485 146.39 164.767 147.108C164.05 147.826 163.077 148.229 162.062 148.231H65.839C64.8239 148.229 63.8509 147.826 63.1332 147.108C62.4154 146.39 62.0117 145.417 62.0104 144.402V68.3429C62.0117 67.3279 62.4154 66.3548 63.1332 65.6371C63.8509 64.9193 64.8239 64.5156 65.8389 64.5144H162.062C163.077 64.5156 164.05 64.9194 164.767 65.6371C165.485 66.3548 165.889 67.3279 165.89 68.3429V144.402Z" fill="#E0E0E0"/>
<path d="M56.536 178.751C56.376 178.751 56.252 178.707 56.164 178.619C56.084 178.523 56.044 178.395 56.044 178.235V170.627C56.044 170.459 56.084 170.335 56.164 170.255C56.252 170.167 56.376 170.123 56.536 170.123C56.696 170.123 56.816 170.167 56.896 170.255C56.984 170.335 57.028 170.459 57.028 170.627V174.047H57.052L60.964 170.399C61.06 170.303 61.156 170.235 61.252 170.195C61.348 170.147 61.452 170.123 61.564 170.123C61.716 170.123 61.824 170.159 61.888 170.231C61.96 170.303 61.988 170.391 61.972 170.495C61.956 170.599 61.9 170.699 61.804 170.795L57.712 174.587L57.724 174.059L61.996 178.007C62.116 178.119 62.18 178.235 62.188 178.355C62.196 178.467 62.16 178.563 62.08 178.643C62.008 178.715 61.896 178.751 61.744 178.751C61.624 178.751 61.52 178.723 61.432 178.667C61.352 178.619 61.26 178.543 61.156 178.439L57.052 174.683H57.028V178.235C57.028 178.395 56.988 178.523 56.908 178.619C56.828 178.707 56.704 178.751 56.536 178.751ZM65.3286 178.775C64.7526 178.775 64.3126 178.599 64.0086 178.247C63.7046 177.895 63.5526 177.391 63.5526 176.735V170.615C63.5526 170.455 63.5926 170.335 63.6726 170.255C63.7526 170.167 63.8726 170.123 64.0326 170.123C64.1846 170.123 64.3046 170.167 64.3926 170.255C64.4806 170.335 64.5246 170.455 64.5246 170.615V176.663C64.5246 177.095 64.6086 177.419 64.7766 177.635C64.9526 177.843 65.2086 177.947 65.5446 177.947C65.6166 177.947 65.6806 177.943 65.7366 177.935C65.7926 177.927 65.8486 177.923 65.9046 177.923C65.9926 177.915 66.0526 177.935 66.0846 177.983C66.1246 178.031 66.1446 178.127 66.1446 178.271C66.1446 178.415 66.1126 178.523 66.0486 178.595C65.9846 178.667 65.8806 178.715 65.7366 178.739C65.6726 178.747 65.6046 178.755 65.5326 178.763C65.4606 178.771 65.3926 178.775 65.3286 178.775ZM67.5834 178.727C67.4234 178.727 67.3034 178.683 67.2234 178.595C67.1434 178.499 67.1034 178.367 67.1034 178.199V173.291C67.1034 173.123 67.1434 172.995 67.2234 172.907C67.3034 172.819 67.4234 172.775 67.5834 172.775C67.7354 172.775 67.8554 172.819 67.9434 172.907C68.0314 172.995 68.0754 173.123 68.0754 173.291V178.199C68.0754 178.367 68.0314 178.499 67.9434 178.595C67.8634 178.683 67.7434 178.727 67.5834 178.727ZM67.5834 171.431C67.3834 171.431 67.2274 171.379 67.1154 171.275C67.0034 171.163 66.9474 171.015 66.9474 170.831C66.9474 170.639 67.0034 170.495 67.1154 170.399C67.2274 170.295 67.3834 170.243 67.5834 170.243C67.7914 170.243 67.9474 170.295 68.0514 170.399C68.1634 170.495 68.2194 170.639 68.2194 170.831C68.2194 171.015 68.1634 171.163 68.0514 171.275C67.9474 171.379 67.7914 171.431 67.5834 171.431ZM70.3725 178.751C70.2125 178.751 70.0925 178.707 70.0125 178.619C69.9325 178.531 69.8925 178.407 69.8925 178.247V170.615C69.8925 170.455 69.9325 170.335 70.0125 170.255C70.0925 170.167 70.2125 170.123 70.3725 170.123C70.5245 170.123 70.6445 170.167 70.7325 170.255C70.8205 170.335 70.8645 170.455 70.8645 170.615V175.427H70.8885L73.3485 173.075C73.4605 172.971 73.5565 172.891 73.6365 172.835C73.7245 172.779 73.8405 172.751 73.9845 172.751C74.1125 172.751 74.2125 172.787 74.2845 172.859C74.3565 172.923 74.3885 173.007 74.3805 173.111C74.3805 173.207 74.3325 173.311 74.2365 173.423L71.6205 175.907V175.379L74.4645 178.055C74.5765 178.167 74.6325 178.275 74.6325 178.379C74.6325 178.483 74.5925 178.571 74.5125 178.643C74.4405 178.715 74.3445 178.751 74.2245 178.751C74.0805 178.751 73.9645 178.723 73.8765 178.667C73.7885 178.603 73.6805 178.511 73.5525 178.391L70.8885 175.931H70.8645V178.247C70.8645 178.583 70.7005 178.751 70.3725 178.751ZM81.0502 178.775C80.5782 178.775 80.1862 178.691 79.8742 178.523C79.5702 178.347 79.3382 178.087 79.1782 177.743C79.0262 177.399 78.9502 176.971 78.9502 176.459V173.243C78.9502 173.075 78.9902 172.951 79.0702 172.871C79.1582 172.791 79.2782 172.751 79.4302 172.751C79.5902 172.751 79.7102 172.791 79.7902 172.871C79.8782 172.951 79.9222 173.075 79.9222 173.243V176.447C79.9222 176.959 80.0262 177.343 80.2342 177.599C80.4502 177.847 80.7862 177.971 81.2422 177.971C81.7382 177.971 82.1422 177.803 82.4542 177.467C82.7662 177.131 82.9222 176.691 82.9222 176.147V173.243C82.9222 173.075 82.9622 172.951 83.0422 172.871C83.1302 172.791 83.2542 172.751 83.4142 172.751C83.5662 172.751 83.6822 172.791 83.7622 172.871C83.8502 172.951 83.8942 173.075 83.8942 173.243V178.247C83.8942 178.583 83.7382 178.751 83.4262 178.751C83.2742 178.751 83.1542 178.707 83.0662 178.619C82.9862 178.531 82.9462 178.407 82.9462 178.247V177.155L83.1022 177.323C82.9422 177.795 82.6782 178.155 82.3102 178.403C81.9502 178.651 81.5302 178.775 81.0502 178.775ZM86.1928 178.751C86.0328 178.751 85.9128 178.707 85.8328 178.619C85.7528 178.531 85.7128 178.407 85.7128 178.247V173.243C85.7128 173.083 85.7528 172.963 85.8328 172.883C85.9128 172.795 86.0288 172.751 86.1808 172.751C86.3328 172.751 86.4488 172.795 86.5288 172.883C86.6168 172.963 86.6608 173.083 86.6608 173.243V174.275L86.5288 174.131C86.6968 173.667 86.9688 173.319 87.3448 173.087C87.7288 172.847 88.1688 172.727 88.6648 172.727C89.1288 172.727 89.5128 172.811 89.8168 172.979C90.1288 173.147 90.3608 173.403 90.5128 173.747C90.6648 174.083 90.7408 174.511 90.7408 175.031V178.247C90.7408 178.407 90.6968 178.531 90.6088 178.619C90.5288 178.707 90.4128 178.751 90.2608 178.751C90.1008 178.751 89.9768 178.707 89.8888 178.619C89.8088 178.531 89.7688 178.407 89.7688 178.247V175.091C89.7688 174.547 89.6608 174.151 89.4448 173.903C89.2368 173.647 88.9008 173.519 88.4368 173.519C87.9008 173.519 87.4728 173.687 87.1528 174.023C86.8408 174.351 86.6848 174.791 86.6848 175.343V178.247C86.6848 178.583 86.5208 178.751 86.1928 178.751ZM94.8731 178.775C94.4171 178.775 94.0331 178.695 93.7211 178.535C93.4171 178.367 93.1891 178.127 93.0371 177.815C92.8851 177.495 92.8091 177.107 92.8091 176.651V173.591H92.0051C91.8691 173.591 91.7651 173.559 91.6931 173.495C91.6211 173.423 91.5851 173.327 91.5851 173.207C91.5851 173.087 91.6211 172.995 91.6931 172.931C91.7651 172.867 91.8691 172.835 92.0051 172.835H92.8091V171.455C92.8091 171.295 92.8531 171.175 92.9411 171.095C93.0291 171.007 93.1491 170.963 93.3011 170.963C93.4531 170.963 93.5691 171.007 93.6491 171.095C93.7371 171.175 93.7811 171.295 93.7811 171.455V172.835H95.2931C95.4291 172.835 95.5331 172.867 95.6051 172.931C95.6771 172.995 95.7131 173.087 95.7131 173.207C95.7131 173.327 95.6771 173.423 95.6051 173.495C95.5331 173.559 95.4291 173.591 95.2931 173.591H93.7811V176.555C93.7811 177.011 93.8771 177.359 94.0691 177.599C94.2611 177.831 94.5731 177.947 95.0051 177.947C95.1571 177.947 95.2851 177.931 95.3891 177.899C95.5011 177.867 95.5931 177.851 95.6651 177.851C95.7371 177.843 95.7971 177.867 95.8451 177.923C95.8931 177.979 95.9171 178.075 95.9171 178.211C95.9171 178.307 95.8971 178.395 95.8571 178.475C95.8251 178.555 95.7651 178.611 95.6771 178.643C95.5811 178.675 95.4531 178.703 95.2931 178.727C95.1411 178.759 95.0011 178.775 94.8731 178.775ZM98.7924 178.775C98.3204 178.775 97.9284 178.691 97.6164 178.523C97.3124 178.347 97.0804 178.087 96.9204 177.743C96.7684 177.399 96.6924 176.971 96.6924 176.459V173.243C96.6924 173.075 96.7324 172.951 96.8124 172.871C96.9004 172.791 97.0204 172.751 97.1724 172.751C97.3324 172.751 97.4524 172.791 97.5324 172.871C97.6204 172.951 97.6644 173.075 97.6644 173.243V176.447C97.6644 176.959 97.7684 177.343 97.9764 177.599C98.1924 177.847 98.5284 177.971 98.9844 177.971C99.4804 177.971 99.8844 177.803 100.196 177.467C100.508 177.131 100.664 176.691 100.664 176.147V173.243C100.664 173.075 100.704 172.951 100.784 172.871C100.872 172.791 100.996 172.751 101.156 172.751C101.308 172.751 101.424 172.791 101.504 172.871C101.592 172.951 101.636 173.075 101.636 173.243V178.247C101.636 178.583 101.48 178.751 101.168 178.751C101.016 178.751 100.896 178.707 100.808 178.619C100.728 178.531 100.688 178.407 100.688 178.247V177.155L100.844 177.323C100.684 177.795 100.42 178.155 100.052 178.403C99.6924 178.651 99.2724 178.775 98.7924 178.775ZM103.935 178.751C103.775 178.751 103.655 178.707 103.575 178.619C103.495 178.531 103.455 178.407 103.455 178.247V170.615C103.455 170.455 103.495 170.335 103.575 170.255C103.655 170.167 103.775 170.123 103.935 170.123C104.087 170.123 104.207 170.167 104.295 170.255C104.383 170.335 104.427 170.455 104.427 170.615V175.427H104.451L106.911 173.075C107.023 172.971 107.119 172.891 107.199 172.835C107.287 172.779 107.403 172.751 107.547 172.751C107.675 172.751 107.775 172.787 107.847 172.859C107.919 172.923 107.951 173.007 107.943 173.111C107.943 173.207 107.895 173.311 107.799 173.423L105.183 175.907V175.379L108.027 178.055C108.139 178.167 108.195 178.275 108.195 178.379C108.195 178.483 108.155 178.571 108.075 178.643C108.003 178.715 107.907 178.751 107.787 178.751C107.643 178.751 107.527 178.723 107.439 178.667C107.351 178.603 107.243 178.511 107.115 178.391L104.451 175.931H104.427V178.247C104.427 178.583 104.263 178.751 103.935 178.751ZM114.613 178.775C114.141 178.775 113.749 178.691 113.437 178.523C113.133 178.347 112.901 178.087 112.741 177.743C112.589 177.399 112.513 176.971 112.513 176.459V173.243C112.513 173.075 112.553 172.951 112.633 172.871C112.721 172.791 112.841 172.751 112.993 172.751C113.153 172.751 113.273 172.791 113.353 172.871C113.441 172.951 113.485 173.075 113.485 173.243V176.447C113.485 176.959 113.589 177.343 113.797 177.599C114.013 177.847 114.349 177.971 114.805 177.971C115.301 177.971 115.705 177.803 116.017 177.467C116.329 177.131 116.485 176.691 116.485 176.147V173.243C116.485 173.075 116.525 172.951 116.605 172.871C116.693 172.791 116.817 172.751 116.977 172.751C117.129 172.751 117.245 172.791 117.325 172.871C117.413 172.951 117.457 173.075 117.457 173.243V178.247C117.457 178.583 117.301 178.751 116.989 178.751C116.837 178.751 116.717 178.707 116.629 178.619C116.549 178.531 116.509 178.407 116.509 178.247V177.155L116.665 177.323C116.505 177.795 116.241 178.155 115.873 178.403C115.513 178.651 115.093 178.775 114.613 178.775ZM119.755 180.911C119.595 180.911 119.475 180.867 119.395 180.779C119.315 180.699 119.275 180.579 119.275 180.419V173.243C119.275 173.083 119.315 172.963 119.395 172.883C119.475 172.795 119.591 172.751 119.743 172.751C119.903 172.751 120.023 172.795 120.103 172.883C120.191 172.963 120.235 173.083 120.235 173.243V174.383L120.103 174.215C120.231 173.759 120.483 173.399 120.859 173.135C121.243 172.863 121.699 172.727 122.227 172.727C122.747 172.727 123.199 172.851 123.583 173.099C123.975 173.339 124.275 173.687 124.483 174.143C124.699 174.591 124.807 175.127 124.807 175.751C124.807 176.367 124.699 176.903 124.483 177.359C124.275 177.807 123.979 178.155 123.595 178.403C123.211 178.651 122.755 178.775 122.227 178.775C121.699 178.775 121.247 178.643 120.871 178.379C120.495 178.107 120.239 177.747 120.103 177.299H120.247V180.419C120.247 180.579 120.203 180.699 120.115 180.779C120.027 180.867 119.907 180.911 119.755 180.911ZM122.023 177.995C122.391 177.995 122.707 177.907 122.971 177.731C123.243 177.555 123.451 177.299 123.595 176.963C123.747 176.627 123.823 176.223 123.823 175.751C123.823 175.023 123.659 174.467 123.331 174.083C123.011 173.699 122.575 173.507 122.023 173.507C121.663 173.507 121.347 173.595 121.075 173.771C120.803 173.939 120.591 174.191 120.439 174.527C120.295 174.855 120.223 175.263 120.223 175.751C120.223 176.471 120.387 177.027 120.715 177.419C121.043 177.803 121.479 177.995 122.023 177.995ZM128.047 178.775C127.471 178.775 127.031 178.599 126.727 178.247C126.423 177.895 126.271 177.391 126.271 176.735V170.615C126.271 170.455 126.311 170.335 126.391 170.255C126.471 170.167 126.591 170.123 126.751 170.123C126.903 170.123 127.023 170.167 127.111 170.255C127.199 170.335 127.243 170.455 127.243 170.615V176.663C127.243 177.095 127.327 177.419 127.495 177.635C127.671 177.843 127.927 177.947 128.263 177.947C128.335 177.947 128.399 177.943 128.455 177.935C128.511 177.927 128.567 177.923 128.623 177.923C128.711 177.915 128.771 177.935 128.803 177.983C128.843 178.031 128.863 178.127 128.863 178.271C128.863 178.415 128.831 178.523 128.767 178.595C128.703 178.667 128.599 178.715 128.455 178.739C128.391 178.747 128.323 178.755 128.251 178.763C128.179 178.771 128.111 178.775 128.047 178.775ZM132.188 178.775C131.62 178.775 131.128 178.651 130.712 178.403C130.296 178.155 129.972 177.807 129.74 177.359C129.516 176.903 129.404 176.367 129.404 175.751C129.404 175.287 129.468 174.871 129.596 174.503C129.724 174.127 129.912 173.807 130.16 173.543C130.408 173.279 130.7 173.079 131.036 172.943C131.38 172.799 131.764 172.727 132.188 172.727C132.756 172.727 133.248 172.851 133.664 173.099C134.08 173.347 134.4 173.699 134.624 174.155C134.856 174.603 134.972 175.135 134.972 175.751C134.972 176.215 134.908 176.631 134.78 176.999C134.652 177.367 134.464 177.687 134.216 177.959C133.968 178.223 133.672 178.427 133.328 178.571C132.992 178.707 132.612 178.775 132.188 178.775ZM132.188 177.995C132.548 177.995 132.864 177.907 133.136 177.731C133.408 177.555 133.616 177.299 133.76 176.963C133.912 176.627 133.988 176.223 133.988 175.751C133.988 175.023 133.824 174.467 133.496 174.083C133.176 173.699 132.74 173.507 132.188 173.507C131.82 173.507 131.5 173.595 131.228 173.771C130.964 173.939 130.756 174.191 130.604 174.527C130.46 174.855 130.388 175.263 130.388 175.751C130.388 176.471 130.552 177.027 130.88 177.419C131.208 177.803 131.644 177.995 132.188 177.995ZM138.268 178.775C137.868 178.775 137.508 178.699 137.188 178.547C136.876 178.387 136.628 178.171 136.444 177.899C136.26 177.627 136.168 177.323 136.168 176.987C136.168 176.555 136.276 176.215 136.492 175.967C136.716 175.719 137.08 175.543 137.584 175.439C138.096 175.335 138.792 175.283 139.672 175.283H140.212V175.919H139.684C139.036 175.919 138.524 175.951 138.148 176.015C137.78 176.071 137.52 176.171 137.368 176.315C137.224 176.459 137.152 176.663 137.152 176.927C137.152 177.255 137.264 177.523 137.488 177.731C137.72 177.939 138.032 178.043 138.424 178.043C138.744 178.043 139.024 177.967 139.264 177.815C139.512 177.663 139.704 177.455 139.84 177.191C139.984 176.927 140.056 176.623 140.056 176.279V174.911C140.056 174.415 139.956 174.059 139.756 173.843C139.556 173.619 139.228 173.507 138.772 173.507C138.492 173.507 138.212 173.543 137.932 173.615C137.652 173.687 137.356 173.803 137.044 173.963C136.932 174.019 136.836 174.039 136.756 174.023C136.676 173.999 136.612 173.955 136.564 173.891C136.516 173.827 136.488 173.755 136.48 173.675C136.472 173.587 136.488 173.503 136.528 173.423C136.576 173.343 136.648 173.279 136.744 173.231C137.096 173.055 137.444 172.927 137.788 172.847C138.132 172.767 138.46 172.727 138.772 172.727C139.276 172.727 139.692 172.811 140.02 172.979C140.348 173.139 140.592 173.387 140.752 173.723C140.912 174.051 140.992 174.475 140.992 174.995V178.247C140.992 178.407 140.952 178.531 140.872 178.619C140.8 178.707 140.692 178.751 140.548 178.751C140.396 178.751 140.28 178.707 140.2 178.619C140.12 178.531 140.08 178.407 140.08 178.247V177.311H140.188C140.124 177.615 140 177.875 139.816 178.091C139.64 178.307 139.42 178.475 139.156 178.595C138.892 178.715 138.596 178.775 138.268 178.775ZM145.015 178.775C144.495 178.775 144.039 178.651 143.647 178.403C143.263 178.155 142.963 177.807 142.747 177.359C142.539 176.903 142.435 176.367 142.435 175.751C142.435 175.127 142.539 174.591 142.747 174.143C142.963 173.687 143.263 173.339 143.647 173.099C144.039 172.851 144.495 172.727 145.015 172.727C145.543 172.727 145.995 172.859 146.371 173.123C146.747 173.387 146.999 173.743 147.127 174.191H146.995V170.615C146.995 170.455 147.035 170.335 147.115 170.255C147.203 170.167 147.327 170.123 147.487 170.123C147.639 170.123 147.755 170.167 147.835 170.255C147.923 170.335 147.967 170.455 147.967 170.615V178.247C147.967 178.407 147.927 178.531 147.847 178.619C147.767 178.707 147.647 178.751 147.487 178.751C147.335 178.751 147.215 178.707 147.127 178.619C147.047 178.531 147.007 178.407 147.007 178.247V177.107L147.139 177.275C147.011 177.731 146.755 178.095 146.371 178.367C145.995 178.639 145.543 178.775 145.015 178.775ZM145.219 177.995C145.579 177.995 145.895 177.907 146.167 177.731C146.439 177.555 146.647 177.299 146.791 176.963C146.943 176.627 147.019 176.223 147.019 175.751C147.019 175.023 146.855 174.467 146.527 174.083C146.207 173.699 145.771 173.507 145.219 173.507C144.851 173.507 144.531 173.595 144.259 173.771C143.995 173.939 143.787 174.191 143.635 174.527C143.491 174.855 143.419 175.263 143.419 175.751C143.419 176.471 143.583 177.027 143.911 177.419C144.239 177.803 144.675 177.995 145.219 177.995ZM153.677 178.751C153.525 178.751 153.405 178.707 153.317 178.619C153.237 178.531 153.197 178.407 153.197 178.247V173.591H152.429C152.301 173.591 152.197 173.559 152.117 173.495C152.045 173.423 152.009 173.327 152.009 173.207C152.009 173.087 152.045 172.995 152.117 172.931C152.197 172.867 152.301 172.835 152.429 172.835H153.461L153.197 173.087V172.631C153.197 171.871 153.381 171.291 153.749 170.891C154.125 170.491 154.673 170.259 155.393 170.195L155.741 170.159C155.853 170.151 155.941 170.171 156.005 170.219C156.077 170.267 156.121 170.327 156.137 170.399C156.161 170.471 156.165 170.547 156.149 170.627C156.133 170.699 156.097 170.763 156.041 170.819C155.985 170.875 155.917 170.907 155.837 170.915L155.561 170.939C155.073 170.979 154.717 171.127 154.493 171.383C154.277 171.639 154.169 172.015 154.169 172.511V173.015L154.025 172.835H155.465C155.601 172.835 155.705 172.867 155.777 172.931C155.849 172.995 155.885 173.087 155.885 173.207C155.885 173.327 155.849 173.423 155.777 173.495C155.705 173.559 155.601 173.591 155.465 173.591H154.169V178.247C154.169 178.583 154.005 178.751 153.677 178.751ZM159.141 178.775C158.573 178.775 158.081 178.651 157.665 178.403C157.249 178.155 156.925 177.807 156.693 177.359C156.469 176.903 156.357 176.367 156.357 175.751C156.357 175.287 156.421 174.871 156.549 174.503C156.677 174.127 156.865 173.807 157.113 173.543C157.361 173.279 157.653 173.079 157.989 172.943C158.333 172.799 158.717 172.727 159.141 172.727C159.709 172.727 160.201 172.851 160.617 173.099C161.033 173.347 161.353 173.699 161.577 174.155C161.809 174.603 161.925 175.135 161.925 175.751C161.925 176.215 161.861 176.631 161.733 176.999C161.605 177.367 161.417 177.687 161.169 177.959C160.921 178.223 160.625 178.427 160.281 178.571C159.945 178.707 159.565 178.775 159.141 178.775ZM159.141 177.995C159.501 177.995 159.817 177.907 160.089 177.731C160.361 177.555 160.569 177.299 160.713 176.963C160.865 176.627 160.941 176.223 160.941 175.751C160.941 175.023 160.777 174.467 160.449 174.083C160.129 173.699 159.693 173.507 159.141 173.507C158.773 173.507 158.453 173.595 158.181 173.771C157.917 173.939 157.709 174.191 157.557 174.527C157.413 174.855 157.341 175.263 157.341 175.751C157.341 176.471 157.505 177.027 157.833 177.419C158.161 177.803 158.597 177.995 159.141 177.995ZM165.666 178.775C165.21 178.775 164.826 178.695 164.514 178.535C164.21 178.367 163.982 178.127 163.83 177.815C163.678 177.495 163.602 177.107 163.602 176.651V173.591H162.798C162.662 173.591 162.558 173.559 162.486 173.495C162.414 173.423 162.378 173.327 162.378 173.207C162.378 173.087 162.414 172.995 162.486 172.931C162.558 172.867 162.662 172.835 162.798 172.835H163.602V171.455C163.602 171.295 163.646 171.175 163.734 171.095C163.822 171.007 163.942 170.963 164.094 170.963C164.246 170.963 164.362 171.007 164.442 171.095C164.53 171.175 164.574 171.295 164.574 171.455V172.835H166.086C166.222 172.835 166.326 172.867 166.398 172.931C166.47 172.995 166.506 173.087 166.506 173.207C166.506 173.327 166.47 173.423 166.398 173.495C166.326 173.559 166.222 173.591 166.086 173.591H164.574V176.555C164.574 177.011 164.67 177.359 164.862 177.599C165.054 177.831 165.366 177.947 165.798 177.947C165.95 177.947 166.078 177.931 166.182 177.899C166.294 177.867 166.386 177.851 166.458 177.851C166.53 177.843 166.59 177.867 166.638 177.923C166.686 177.979 166.71 178.075 166.71 178.211C166.71 178.307 166.69 178.395 166.65 178.475C166.618 178.555 166.558 178.611 166.47 178.643C166.374 178.675 166.246 178.703 166.086 178.727C165.934 178.759 165.794 178.775 165.666 178.775ZM169.887 178.775C169.319 178.775 168.827 178.651 168.411 178.403C167.995 178.155 167.671 177.807 167.439 177.359C167.215 176.903 167.103 176.367 167.103 175.751C167.103 175.287 167.167 174.871 167.295 174.503C167.423 174.127 167.611 173.807 167.859 173.543C168.107 173.279 168.399 173.079 168.735 172.943C169.079 172.799 169.463 172.727 169.887 172.727C170.455 172.727 170.947 172.851 171.363 173.099C171.779 173.347 172.099 173.699 172.323 174.155C172.555 174.603 172.671 175.135 172.671 175.751C172.671 176.215 172.607 176.631 172.479 176.999C172.351 177.367 172.163 177.687 171.915 177.959C171.667 178.223 171.371 178.427 171.027 178.571C170.691 178.707 170.311 178.775 169.887 178.775ZM169.887 177.995C170.247 177.995 170.563 177.907 170.835 177.731C171.107 177.555 171.315 177.299 171.459 176.963C171.611 176.627 171.687 176.223 171.687 175.751C171.687 175.023 171.523 174.467 171.195 174.083C170.875 173.699 170.439 173.507 169.887 173.507C169.519 173.507 169.199 173.595 168.927 173.771C168.663 173.939 168.455 174.191 168.303 174.527C168.159 174.855 168.087 175.263 168.087 175.751C168.087 176.471 168.251 177.027 168.579 177.419C168.907 177.803 169.343 177.995 169.887 177.995Z" fill="#6B7280"/>
</g>
<rect x="0.833496" y="1.16699" width="227.333" height="227" rx="2.5" stroke="#D1D5DB" stroke-dasharray="6 6"/>
<defs>
<clipPath id="clip0_104_6611">
<rect x="0.333496" y="46.667" width="228.333" height="136" rx="2.66667" fill="white"/>
</clipPath>
</defs>
</svg>
